<svg xmlns="http://www.w3.org/2000/svg" xmlns:xlink="http://www.w3.org/1999/xlink" width="800" zoomAndPan="magnify" viewBox="0 0 600 599.999999" height="800" preserveAspectRatio="xMidYMid meet" version="1.0"><defs><clipPath id="1a41f04c9d"><path d="M 0 75 L 0 525 C 0 566.421875 33.578125 600 75 600 L 525 600 C 566.421875 600 600 566.421875 600 525 L 600 75 C 600 33.578125 566.421875 0 525 0 L 75 0 C 33.578125 0 0 33.578125 0 75 Z M 0 75 " clip-rule="nonzero"/></clipPath><clipPath id="106ec2e8af"><path d="M 191 216 L 408 216 L 408 471 L 191 471 Z M 191 216 " clip-rule="nonzero"/></clipPath><clipPath id="f7ac0838ef"><path d="M 0 75 L 0 525 C 0 566.421875 33.578125 600 75 600 L 525 600 C 566.421875 600 600 566.421875 600 525 L 600 75 C 600 33.578125 566.421875 0 525 0 L 75 0 C 33.578125 0 0 33.578125 0 75 Z M 0 75 " clip-rule="nonzero"/></clipPath><clipPath id="0b51d4cdf7"><path d="M 228 249 L 369 249 L 369 323 L 228 323 Z M 228 249 " clip-rule="nonzero"/></clipPath><clipPath id="66a8b9b868"><path d="M 0 75 L 0 525 C 0 566.421875 33.578125 600 75 600 L 525 600 C 566.421875 600 600 566.421875 600 525 L 600 75 C 600 33.578125 566.421875 0 525 0 L 75 0 C 33.578125 0 0 33.578125 0 75 Z M 0 75 " clip-rule="nonzero"/></clipPath><clipPath id="3fa07eb880"><path d="M 320 104 L 390 104 L 390 176 L 320 176 Z M 320 104 " clip-rule="nonzero"/></clipPath><clipPath id="29a3c5fef3"><path d="M 0 75 L 0 525 C 0 566.421875 33.578125 600 75 600 L 525 600 C 566.421875 600 600 566.421875 600 525 L 600 75 C 600 33.578125 566.421875 0 525 0 L 75 0 C 33.578125 0 0 33.578125 0 75 Z M 0 75 " clip-rule="nonzero"/></clipPath><clipPath id="3c5d52b86c"><path d="M 209 104 L 280 104 L 280 176 L 209 176 Z M 209 104 " clip-rule="nonzero"/></clipPath><clipPath id="97c6bb1f92"><path d="M 0 75 L 0 525 C 0 566.421875 33.578125 600 75 600 L 525 600 C 566.421875 600 600 566.421875 600 525 L 600 75 C 600 33.578125 566.421875 0 525 0 L 75 0 C 33.578125 0 0 33.578125 0 75 Z M 0 75 " clip-rule="nonzero"/></clipPath><clipPath id="0bb5daca76"><path d="M 592 592 L 600 592 L 600 600 L 592 600 Z M 592 592 " clip-rule="nonzero"/></clipPath><clipPath id="6d9c71e381"><path d="M 0 75 L 0 525 C 0 566.421875 33.578125 600 75 600 L 525 600 C 566.421875 600 600 566.421875 600 525 L 600 75 C 600 33.578125 566.421875 0 525 0 L 75 0 C 33.578125 0 0 33.578125 0 75 Z M 0 75 " clip-rule="nonzero"/></clipPath><clipPath id="a360104a9c"><path d="M 0 592 L 8 592 L 8 600 L 0 600 Z M 0 592 " clip-rule="nonzero"/></clipPath><clipPath id="21d904fd85"><path d="M 0 75 L 0 525 C 0 566.421875 33.578125 600 75 600 L 525 600 C 566.421875 600 600 566.421875 600 525 L 600 75 C 600 33.578125 566.421875 0 525 0 L 75 0 C 33.578125 0 0 33.578125 0 75 Z M 0 75 " clip-rule="nonzero"/></clipPath><clipPath id="332072cf3a"><path d="M 592 0 L 600 0 L 600 8 L 592 8 Z M 592 0 " clip-rule="nonzero"/></clipPath><clipPath id="ab4e8b84da"><path d="M 0 75 L 0 525 C 0 566.421875 33.578125 600 75 600 L 525 600 C 566.421875 600 600 566.421875 600 525 L 600 75 C 600 33.578125 566.421875 0 525 0 L 75 0 C 33.578125 0 0 33.578125 0 75 Z M 0 75 " clip-rule="nonzero"/></clipPath><clipPath id="a2a2eec7be"><path d="M 0 0 L 8 0 L 8 8 L 0 8 Z M 0 0 " clip-rule="nonzero"/></clipPath><clipPath id="b52a45fa63"><path d="M 0 75 L 0 525 C 0 566.421875 33.578125 600 75 600 L 525 600 C 566.421875 600 600 566.421875 600 525 L 600 75 C 600 33.578125 566.421875 0 525 0 L 75 0 C 33.578125 0 0 33.578125 0 75 Z M 0 75 " clip-rule="nonzero"/></clipPath></defs><g clip-path="url(#1a41f04c9d)"><path fill="#fefefe" d="M 0 0 C 198 0 396 0 600 0 C 600 198 600 396 600 600 C 402 600 204 600 0 600 C 0 402 0 204 0 0 Z M 0 0 " fill-opacity="1" fill-rule="nonzero"/></g><g clip-path="url(#106ec2e8af)"><g clip-path="url(#f7ac0838ef)"><path fill="#242845" d="M 295.433594 216.597656 C 296.253906 216.589844 296.253906 216.589844 297.089844 216.585938 C 298.246094 216.578125 299.398438 216.574219 300.550781 216.570312 C 302.273438 216.5625 304 216.539062 305.722656 216.515625 C 313.121094 216.460938 319.78125 217.257812 327 219 C 327.671875 219.148438 328.339844 219.296875 329.03125 219.453125 C 353.023438 224.863281 374.40625 239.480469 387.96875 260.105469 C 394.71875 270.855469 399.46875 282.523438 402.75 294.75 C 402.976562 295.585938 403.207031 296.425781 403.441406 297.289062 C 404.078125 299.925781 404.574219 302.570312 405 305.25 C 405.101562 305.875 405.203125 306.496094 405.308594 307.140625 C 407.015625 318.140625 407.46875 329.011719 407.484375 340.125 C 407.488281 341.085938 407.488281 341.085938 407.492188 342.070312 C 407.496094 343.898438 407.488281 345.726562 407.476562 347.554688 C 407.476562 348.109375 407.476562 348.664062 407.476562 349.234375 C 407.425781 353.074219 407.425781 353.074219 405.75 354.75 C 403.429688 354.894531 401.171875 354.945312 398.851562 354.929688 C 397.765625 354.933594 397.765625 354.933594 396.65625 354.933594 C 394.214844 354.9375 391.773438 354.929688 389.332031 354.921875 C 387.585938 354.917969 385.84375 354.921875 384.097656 354.921875 C 379.351562 354.921875 374.605469 354.914062 369.855469 354.902344 C 365.402344 354.894531 360.945312 354.890625 356.492188 354.890625 C 347.664062 354.886719 338.839844 354.878906 330.015625 354.863281 C 321.441406 354.847656 312.863281 354.839844 304.289062 354.832031 C 303.761719 354.832031 303.234375 354.832031 302.6875 354.832031 C 300.039062 354.828125 297.390625 354.828125 294.738281 354.824219 C 272.742188 354.808594 250.746094 354.785156 228.75 354.75 C 228.984375 356.792969 229.222656 358.832031 229.460938 360.875 C 229.527344 361.449219 229.59375 362.023438 229.664062 362.613281 C 232.101562 383.476562 238.339844 402.039062 253.5 417 C 254.0625 417.5625 254.628906 418.125 255.207031 418.703125 C 269.015625 431.738281 289.085938 436.273438 307.578125 436.054688 C 324.726562 435.523438 342.289062 429.917969 354.75 417.75 C 358.960938 412.878906 362.003906 407.4375 364.914062 401.738281 C 366 399.75 366 399.75 367.5 398.25 C 369.804688 398.660156 371.992188 399.15625 374.25 399.75 C 374.914062 399.917969 375.578125 400.082031 376.261719 400.253906 C 378.40625 400.792969 380.546875 401.347656 382.6875 401.90625 C 383.441406 402.105469 384.199219 402.300781 384.976562 402.503906 C 400.632812 406.632812 400.632812 406.632812 402 408 C 402.179688 418.351562 394.832031 428.132812 388.5 435.75 C 387.96875 436.394531 387.4375 437.042969 386.886719 437.707031 C 373.257812 453.554688 353.289062 463.71875 332.953125 467.765625 C 331.816406 468.003906 331.816406 468.003906 330.65625 468.246094 C 323.125 469.785156 315.835938 470.382812 308.15625 470.34375 C 307.398438 470.339844 306.640625 470.335938 305.863281 470.332031 C 272.621094 470.066406 245.34375 459.769531 221.699219 436.207031 C 201.644531 414.957031 191.320312 382.828125 191.070312 353.980469 C 191.0625 353.277344 191.058594 352.570312 191.050781 351.847656 C 190.925781 336.84375 190.832031 322.195312 194.25 307.5 C 194.464844 306.558594 194.464844 306.558594 194.6875 305.597656 C 195.621094 301.671875 196.730469 297.828125 198 294 C 198.167969 293.492188 198.335938 292.984375 198.507812 292.460938 C 204.058594 276.074219 212.582031 261.035156 224.25 248.25 C 224.984375 247.433594 224.984375 247.433594 225.734375 246.605469 C 243.609375 227.773438 269.527344 216.761719 295.433594 216.597656 Z M 295.433594 216.597656 " fill-opacity="1" fill-rule="nonzero"/></g></g><g clip-path="url(#0b51d4cdf7)"><g clip-path="url(#66a8b9b868)"><path fill="#fefefe" d="M 343.40625 263.484375 C 354.542969 273.273438 361.585938 284.449219 366 298.5 C 366.253906 299.308594 366.511719 300.117188 366.773438 300.949219 C 368.628906 307.792969 368.648438 314.710938 368.25 321.75 C 366.992188 323.007812 365.449219 322.589844 363.773438 322.597656 C 362.964844 322.59375 362.964844 322.59375 362.140625 322.589844 C 361.574219 322.589844 361.007812 322.589844 360.421875 322.59375 C 358.507812 322.59375 356.59375 322.589844 354.679688 322.585938 C 353.3125 322.585938 351.945312 322.585938 350.578125 322.585938 C 346.851562 322.585938 343.128906 322.582031 339.40625 322.574219 C 335.519531 322.570312 331.632812 322.570312 327.746094 322.570312 C 320.378906 322.566406 313.015625 322.5625 305.648438 322.554688 C 297.265625 322.546875 288.882812 322.542969 280.5 322.539062 C 263.25 322.53125 246 322.515625 228.75 322.5 C 228.976562 320.328125 229.210938 318.160156 229.441406 315.992188 C 229.507812 315.378906 229.570312 314.765625 229.636719 314.136719 C 230.085938 309.972656 230.761719 306.097656 232.21875 302.15625 C 232.511719 301.332031 232.511719 301.332031 232.808594 300.492188 C 239.5625 282.027344 252 265.292969 269.996094 256.519531 C 293.265625 246.019531 322.953125 247.46875 343.40625 263.484375 Z M 343.40625 263.484375 " fill-opacity="1" fill-rule="nonzero"/></g></g><g clip-path="url(#3fa07eb880)"><g clip-path="url(#29a3c5fef3)"><path fill="#ed5c11" d="M 373.359375 110.109375 C 374.421875 110.882812 375.472656 111.679688 376.5 112.5 C 376.953125 112.859375 377.40625 113.21875 377.871094 113.585938 C 384.4375 119.457031 388.773438 128.203125 389.457031 136.882812 C 389.921875 145.953125 388.261719 155.109375 382.1875 162.230469 C 381.796875 162.648438 381.40625 163.066406 381 163.5 C 380.609375 163.949219 380.214844 164.402344 379.808594 164.867188 C 372.847656 172.417969 364.136719 175.414062 354 175.828125 C 346.148438 175.589844 339.074219 172.9375 333 168 C 332.492188 167.605469 331.988281 167.207031 331.464844 166.800781 C 326.03125 162.019531 321.738281 154.089844 320.25 147 C 319.613281 135.410156 320.96875 125.769531 328.734375 116.8125 C 331.65625 113.714844 334.707031 111.105469 338.25 108.75 C 338.882812 108.316406 339.519531 107.882812 340.171875 107.4375 C 350.410156 102.1875 363.9375 104.210938 373.359375 110.109375 Z M 373.359375 110.109375 " fill-opacity="1" fill-rule="nonzero"/></g></g><g clip-path="url(#3c5d52b86c)"><g clip-path="url(#97c6bb1f92)"><path fill="#ed5c11" d="M 263.769531 110.460938 C 271.214844 116.007812 277.59375 124.128906 279 133.5 C 279.851562 144.269531 278.582031 154.128906 271.5 162.75 C 265.015625 170.324219 257.214844 174.796875 247.234375 175.738281 C 236.539062 176.105469 227.890625 172.804688 220.03125 165.65625 C 212.695312 157.910156 209.433594 148.355469 209.6875 137.820312 C 210.523438 130.257812 212.792969 122.503906 218.25 117 C 218.789062 116.441406 219.332031 115.878906 219.886719 115.304688 C 232 103.578125 249.324219 101.03125 263.769531 110.460938 Z M 263.769531 110.460938 " fill-opacity="1" fill-rule="nonzero"/></g></g><g clip-path="url(#0bb5daca76)"><g clip-path="url(#6d9c71e381)"><path fill="#000000" d="M 599.25 592.5 C 599.496094 592.5 599.746094 592.5 600 592.5 C 600 594.976562 600 597.449219 600 600 C 597.523438 600 595.050781 600 592.5 600 C 593.058594 599.597656 593.613281 599.195312 594.1875 598.78125 C 596.378906 596.886719 597.703125 594.929688 599.25 592.5 Z M 599.25 592.5 " fill-opacity="1" fill-rule="nonzero"/></g></g><g clip-path="url(#a360104a9c)"><g clip-path="url(#21d904fd85)"><path fill="#000000" d="M 0 592.5 C 0.402344 593.058594 0.804688 593.613281 1.21875 594.1875 C 3.113281 596.378906 5.070312 597.703125 7.5 599.25 C 7.5 599.496094 7.5 599.746094 7.5 600 C 5.023438 600 2.550781 600 0 600 C 0 597.523438 0 595.050781 0 592.5 Z M 0 592.5 " fill-opacity="1" fill-rule="nonzero"/></g></g><g clip-path="url(#332072cf3a)"><g clip-path="url(#ab4e8b84da)"><path fill="#000000" d="M 592.5 0 C 594.976562 0 597.449219 0 600 0 C 600 2.476562 600 4.949219 600 7.5 C 599.597656 6.941406 599.195312 6.386719 598.78125 5.8125 C 596.886719 3.621094 594.929688 2.296875 592.5 0.75 C 592.5 0.503906 592.5 0.253906 592.5 0 Z M 592.5 0 " fill-opacity="1" fill-rule="nonzero"/></g></g><g clip-path="url(#a2a2eec7be)"><g clip-path="url(#b52a45fa63)"><path fill="#000000" d="M 0 0 C 2.476562 0 4.949219 0 7.5 0 C 6.941406 0.402344 6.386719 0.804688 5.8125 1.21875 C 3.621094 3.113281 2.296875 5.070312 0.75 7.5 C 0.503906 7.5 0.253906 7.5 0 7.5 C 0 5.023438 0 2.550781 0 0 Z M 0 0 " fill-opacity="1" fill-rule="nonzero"/></g></g></svg>